<?xml version="1.0" encoding="UTF-8" standalone="no"?>
<!DOCTYPE svg PUBLIC "-//W3C//DTD SVG 1.1//EN"
 "http://www.w3.org/Graphics/SVG/1.1/DTD/svg11.dtd">
<!-- Generated by graphviz version 2.36.0 (20140111.2315)
 -->
<!-- Title: ./example; 2999 samples Pages: 1 -->
<svg width="100%" height="100%"
  xmlns="http://www.w3.org/2000/svg" xmlns:xlink="http://www.w3.org/1999/xlink">
<script type="text/ecmascript"><![CDATA[
// SVGPan
// http://www.cyberz.org/blog/2009/12/08/svgpan-a-javascript-svg-panzoomdrag-library/
// Local modification: if(true || ...) below to force panning, never moving.
// Local modification: add clamping to fix bug in handleMouseWheel.

/**
 *  SVGPan library 1.2
 * ====================
 *
 * Given an unique existing element with id "viewport", including the
 * the library into any SVG adds the following capabilities:
 *
 *  - Mouse panning
 *  - Mouse zooming (using the wheel)
 *  - Object dargging
 *
 * Known issues:
 *
 *  - Zooming (while panning) on Safari has still some issues
 *
 * Releases:
 *
 * 1.2, Sat Mar 20 08:42:50 GMT 2010, Zeng Xiaohui
 *	Fixed a bug with browser mouse handler interaction
 *
 * 1.1, Wed Feb  3 17:39:33 GMT 2010, Zeng Xiaohui
 *	Updated the zoom code to support the mouse wheel on Safari/Chrome
 *
 * 1.0, Andrea Leofreddi
 *	First release
 *
 * This code is licensed under the following BSD license:
 *
 * Copyright 2009-2010 Andrea Leofreddi <a.leofreddi@itcharm.com>. All rights reserved.
 *
 * Redistribution and use in source and binary forms, with or without modification, are
 * permitted provided that the following conditions are met:
 *
 *    1. Redistributions of source code must retain the above copyright notice, this list of
 *       conditions and the following disclaimer.
 *
 *    2. Redistributions in binary form must reproduce the above copyright notice, this list
 *       of conditions and the following disclaimer in the documentation and/or other materials
 *       provided with the distribution.
 *
 * THIS SOFTWARE IS PROVIDED BY Andrea Leofreddi ``AS IS'' AND ANY EXPRESS OR IMPLIED
 * WARRANTIES, INCLUDING, BUT NOT LIMITED TO, THE IMPLIED WARRANTIES OF MERCHANTABILITY AND
 * FITNESS FOR A PARTICULAR PURPOSE ARE DISCLAIMED. IN NO EVENT SHALL Andrea Leofreddi OR
 * CONTRIBUTORS BE LIABLE FOR ANY DIRECT, INDIRECT, INCIDENTAL, SPECIAL, EXEMPLARY, OR
 * CONSEQUENTIAL DAMAGES (INCLUDING, BUT NOT LIMITED TO, PROCUREMENT OF SUBSTITUTE GOODS OR
 * SERVICES; LOSS OF USE, DATA, OR PROFITS; OR BUSINESS INTERRUPTION) HOWEVER CAUSED AND ON
 * ANY THEORY OF LIABILITY, WHETHER IN CONTRACT, STRICT LIABILITY, OR TORT (INCLUDING
 * NEGLIGENCE OR OTHERWISE) ARISING IN ANY WAY OUT OF THE USE OF THIS SOFTWARE, EVEN IF
 * ADVISED OF THE POSSIBILITY OF SUCH DAMAGE.
 *
 * The views and conclusions contained in the software and documentation are those of the
 * authors and should not be interpreted as representing official policies, either expressed
 * or implied, of Andrea Leofreddi.
 */

var root = document.documentElement;

var state = 'none', stateTarget, stateOrigin, stateTf;

setupHandlers(root);

/**
 * Register handlers
 */
function setupHandlers(root){
	setAttributes(root, {
		"onmouseup" : "add(evt)",
		"onmousedown" : "handleMouseDown(evt)",
		"onmousemove" : "handleMouseMove(evt)",
		"onmouseup" : "handleMouseUp(evt)",
		//"onmouseout" : "handleMouseUp(evt)", // Decomment this to stop the pan functionality when dragging out of the SVG element
	});

	if(navigator.userAgent.toLowerCase().indexOf('webkit') >= 0)
		window.addEventListener('mousewheel', handleMouseWheel, false); // Chrome/Safari
	else
		window.addEventListener('DOMMouseScroll', handleMouseWheel, false); // Others

	var g = svgDoc.getElementById("svg");
	g.width = "100%";
	g.height = "100%";
}

/**
 * Instance an SVGPoint object with given event coordinates.
 */
function getEventPoint(evt) {
	var p = root.createSVGPoint();

	p.x = evt.clientX;
	p.y = evt.clientY;

	return p;
}

/**
 * Sets the current transform matrix of an element.
 */
function setCTM(element, matrix) {
	var s = "matrix(" + matrix.a + "," + matrix.b + "," + matrix.c + "," + matrix.d + "," + matrix.e + "," + matrix.f + ")";

	element.setAttribute("transform", s);
}

/**
 * Dumps a matrix to a string (useful for debug).
 */
function dumpMatrix(matrix) {
	var s = "[ " + matrix.a + ", " + matrix.c + ", " + matrix.e + "\n  " + matrix.b + ", " + matrix.d + ", " + matrix.f + "\n  0, 0, 1 ]";

	return s;
}

/**
 * Sets attributes of an element.
 */
function setAttributes(element, attributes){
	for (i in attributes)
		element.setAttributeNS(null, i, attributes[i]);
}

/**
 * Handle mouse move event.
 */
function handleMouseWheel(evt) {
	if(evt.preventDefault)
		evt.preventDefault();

	evt.returnValue = false;

	var svgDoc = evt.target.ownerDocument;

	var delta;

	if(evt.wheelDelta)
		delta = evt.wheelDelta / 3600; // Chrome/Safari
	else
		delta = evt.detail / -90; // Mozilla

	var z = 1 + delta; // Zoom factor: 0.9/1.1

	// Clamp to reasonable values.
	// The 0.1 check is important because
	// a very large scroll can turn into a
	// negative z, which rotates the image 180 degrees.
	if(z < 0.1)
		z = 0.1;
	if(z > 10.0)
		z = 10.0;

	var g = svgDoc.getElementById("viewport");

	var p = getEventPoint(evt);

	p = p.matrixTransform(g.getCTM().inverse());

	// Compute new scale matrix in current mouse position
	var k = root.createSVGMatrix().translate(p.x, p.y).scale(z).translate(-p.x, -p.y);

        setCTM(g, g.getCTM().multiply(k));

	stateTf = stateTf.multiply(k.inverse());
}

/**
 * Handle mouse move event.
 */
function handleMouseMove(evt) {
	if(evt.preventDefault)
		evt.preventDefault();

	evt.returnValue = false;

	var svgDoc = evt.target.ownerDocument;

	var g = svgDoc.getElementById("viewport");

	if(state == 'pan') {
		// Pan mode
		var p = getEventPoint(evt).matrixTransform(stateTf);

		setCTM(g, stateTf.inverse().translate(p.x - stateOrigin.x, p.y - stateOrigin.y));
	} else if(state == 'move') {
		// Move mode
		var p = getEventPoint(evt).matrixTransform(g.getCTM().inverse());

		setCTM(stateTarget, root.createSVGMatrix().translate(p.x - stateOrigin.x, p.y - stateOrigin.y).multiply(g.getCTM().inverse()).multiply(stateTarget.getCTM()));

		stateOrigin = p;
	}
}

/**
 * Handle click event.
 */
function handleMouseDown(evt) {
	if(evt.preventDefault)
		evt.preventDefault();

	evt.returnValue = false;

	var svgDoc = evt.target.ownerDocument;

	var g = svgDoc.getElementById("viewport");

	if(true || evt.target.tagName == "svg") {
		// Pan mode
		state = 'pan';

		stateTf = g.getCTM().inverse();

		stateOrigin = getEventPoint(evt).matrixTransform(stateTf);
	} else {
		// Move mode
		state = 'move';

		stateTarget = evt.target;

		stateTf = g.getCTM().inverse();

		stateOrigin = getEventPoint(evt).matrixTransform(stateTf);
	}
}

/**
 * Handle mouse button release event.
 */
function handleMouseUp(evt) {
	if(evt.preventDefault)
		evt.preventDefault();

	evt.returnValue = false;

	var svgDoc = evt.target.ownerDocument;

	if(state == 'pan' || state == 'move') {
		// Quit pan mode
		state = '';
	}
}

]]></script>
<g id="viewport" transform="translate(0,0)">
<g id="viewport" class="graph" transform="scale(1 1) rotate(0) translate(4 790)">
<title>./example; 2999 samples</title>
<polygon fill="white" stroke="none" points="-4,4 -4,-790 836,-790 836,4 -4,4"/>
<!-- Legend -->
<g id="node1" class="node"><title>Legend</title>
<text text-anchor="start" x="8" y="-762.8" font-family="Times,serif" font-size="24.00">./example</text>
<text text-anchor="start" x="8" y="-736.8" font-family="Times,serif" font-size="24.00">Total samples: 2999</text>
<text text-anchor="start" x="8" y="-710.8" font-family="Times,serif" font-size="24.00">Focusing on: 2999</text>
<text text-anchor="start" x="8" y="-684.8" font-family="Times,serif" font-size="24.00">Dropped nodes with &lt;= 14 abs(samples)</text>
<text text-anchor="start" x="8" y="-658.8" font-family="Times,serif" font-size="24.00">Dropped edges with &lt;= 2 samples</text>
</g>
<!-- N1 -->
<g id="node2" class="node"><title>N1</title>
<polygon fill="none" stroke="black" points="495.25,-734.5 422.75,-734.5 422.75,-699.5 495.25,-699.5 495.25,-734.5"/>
<text text-anchor="middle" x="459" y="-724.1" font-family="Times,serif" font-size="8.00">runtime.gosched0</text>
<text text-anchor="end" x="487.5" y="-715.1" font-family="Times,serif" font-size="8.00">0 (0.0%)</text>
<text text-anchor="end" x="487.5" y="-706.1" font-family="Times,serif" font-size="8.00">of 2994 (99.8%)</text>
</g>
<!-- N2 -->
<g id="node3" class="node"><title>N2</title>
<polygon fill="none" stroke="black" points="632.25,-595.5 285.75,-595.5 285.75,-536.5 632.25,-536.5 632.25,-595.5"/>
<text text-anchor="middle" x="459" y="-579.18" font-family="Times,serif" font-size="15.40">github.com/wheelcomplex/goqueue.(*Stack).manager</text>
<text text-anchor="end" x="624.5" y="-562.18" font-family="Times,serif" font-size="15.40">65 (2.2%)</text>
<text text-anchor="end" x="624.5" y="-545.18" font-family="Times,serif" font-size="15.40">of 1451 (48.4%)</text>
</g>
<!-- N1&#45;&gt;N2 -->
<g id="edge10" class="edge"><title>N1&#45;&gt;N2</title>
<path fill="none" stroke="black" stroke-width="2" d="M459,-699.485C459,-677.051 459,-636.257 459,-605.841"/>
<polygon fill="black" stroke="black" stroke-width="2" points="462.5,-605.562 459,-595.562 455.5,-605.562 462.5,-605.562"/>
<text text-anchor="middle" x="473" y="-618.3" font-family="Times,serif" font-size="14.00">1451</text>
</g>
<!-- N8 -->
<g id="node9" class="node"><title>N8</title>
<polygon fill="none" stroke="black" points="750,-592.5 650,-592.5 650,-539.5 750,-539.5 750,-592.5"/>
<text text-anchor="middle" x="700" y="-577.54" font-family="Times,serif" font-size="13.70">main.stackIn</text>
<text text-anchor="end" x="742" y="-562.54" font-family="Times,serif" font-size="13.70">39 (1.3%)</text>
<text text-anchor="end" x="742" y="-547.54" font-family="Times,serif" font-size="13.70">of 818 (27.3%)</text>
</g>
<!-- N1&#45;&gt;N8 -->
<g id="edge9" class="edge"><title>N1&#45;&gt;N8</title>
<path fill="none" stroke="black" stroke-width="1.63655" d="M485.712,-699.485C525.251,-675.04 600.048,-628.796 649.968,-597.933"/>
<polygon fill="black" stroke="black" stroke-width="1.63655" points="652.013,-600.784 658.678,-592.548 648.331,-594.83 652.013,-600.784"/>
<text text-anchor="middle" x="632.5" y="-618.3" font-family="Times,serif" font-size="14.00">818</text>
</g>
<!-- N9 -->
<g id="node10" class="node"><title>N9</title>
<polygon fill="none" stroke="black" points="267.25,-589.5 178.75,-589.5 178.75,-542.5 267.25,-542.5 267.25,-589.5"/>
<text text-anchor="middle" x="223" y="-576.06" font-family="Times,serif" font-size="11.80">main.stackOut</text>
<text text-anchor="end" x="259.5" y="-563.06" font-family="Times,serif" font-size="11.80">17 (0.6%)</text>
<text text-anchor="end" x="259.5" y="-550.06" font-family="Times,serif" font-size="11.80">of 724 (24.1%)</text>
</g>
<!-- N1&#45;&gt;N9 -->
<g id="edge20" class="edge"><title>N1&#45;&gt;N9</title>
<path fill="none" stroke="black" stroke-width="1.44848" d="M451.401,-699.304C443.691,-684.046 430.42,-661.818 413,-648 362.302,-607.783 335.848,-622.919 277,-596 275.639,-595.378 274.265,-594.736 272.883,-594.079"/>
<polygon fill="black" stroke="black" stroke-width="1.44848" points="274.224,-590.839 263.706,-589.567 271.136,-597.12 274.224,-590.839"/>
<text text-anchor="middle" x="395.5" y="-618.3" font-family="Times,serif" font-size="14.00">724</text>
</g>
<!-- N10 -->
<g id="node11" class="node"><title>N10</title>
<polygon fill="none" stroke="black" points="414,-479.5 300,-479.5 300,-432.5 414,-432.5 414,-479.5"/>
<text text-anchor="middle" x="357" y="-465.98" font-family="Times,serif" font-size="11.90">runtime.selectnbrecv</text>
<text text-anchor="end" x="406" y="-452.98" font-family="Times,serif" font-size="11.90">18 (0.6%)</text>
<text text-anchor="end" x="406" y="-439.98" font-family="Times,serif" font-size="11.90">of 716 (23.9%)</text>
</g>
<!-- N2&#45;&gt;N10 -->
<g id="edge3" class="edge"><title>N2&#45;&gt;N10</title>
<path fill="none" stroke="black" stroke-width="1.43248" d="M431.934,-536.342C417.529,-521.09 399.83,-502.35 385.251,-486.913"/>
<polygon fill="black" stroke="black" stroke-width="1.43248" points="387.784,-484.497 378.373,-479.63 382.695,-489.303 387.784,-484.497"/>
<text text-anchor="middle" x="424.5" y="-506.3" font-family="Times,serif" font-size="14.00">716</text>
</g>
<!-- N13 -->
<g id="node14" class="node"><title>N13</title>
<polygon fill="none" stroke="black" points="563.25,-482.5 432.75,-482.5 432.75,-429.5 563.25,-429.5 563.25,-482.5"/>
<text text-anchor="middle" x="498" y="-467.62" font-family="Times,serif" font-size="13.60">runtime.selectnbsend</text>
<text text-anchor="end" x="555.5" y="-452.62" font-family="Times,serif" font-size="13.60">37 (1.2%)</text>
<text text-anchor="end" x="555.5" y="-437.62" font-family="Times,serif" font-size="13.60">of 654 (21.8%)</text>
</g>
<!-- N2&#45;&gt;N13 -->
<g id="edge8" class="edge"><title>N2&#45;&gt;N13</title>
<path fill="none" stroke="black" stroke-width="1.30844" d="M469.349,-536.342C474.226,-522.836 480.091,-506.594 485.241,-492.334"/>
<polygon fill="black" stroke="black" stroke-width="1.30844" points="488.566,-493.43 488.671,-482.835 481.982,-491.052 488.566,-493.43"/>
<text text-anchor="middle" x="490.5" y="-506.3" font-family="Times,serif" font-size="14.00">654</text>
</g>
<!-- N3 -->
<g id="node4" class="node"><title>N3</title>
<polygon fill="none" stroke="black" points="432.5,-102 185.5,-102 185.5,-7.10543e-15 432.5,-7.10543e-15 432.5,-102"/>
<text text-anchor="middle" x="309" y="-64.16" font-family="Times,serif" font-size="42.30">runtime.xchg</text>
<text text-anchor="end" x="425" y="-17.16" font-family="Times,serif" font-size="42.30">1414 (47.1%)</text>
</g>
<!-- N4 -->
<g id="node5" class="node"><title>N4</title>
<polygon fill="none" stroke="black" points="396.5,-376 221.5,-376 221.5,-290 396.5,-290 396.5,-376"/>
<text text-anchor="middle" x="309" y="-352.8" font-family="Times,serif" font-size="24.00">chanrecv</text>
<text text-anchor="end" x="389" y="-326.8" font-family="Times,serif" font-size="24.00">308 (10.3%)</text>
<text text-anchor="end" x="389" y="-300.8" font-family="Times,serif" font-size="24.00">of 1363 (45.4%)</text>
</g>
<!-- N6 -->
<g id="node7" class="node"><title>N6</title>
<polygon fill="none" stroke="black" points="380.25,-234.5 237.75,-234.5 237.75,-157.5 380.25,-157.5 380.25,-234.5"/>
<text text-anchor="middle" x="309" y="-213.78" font-family="Times,serif" font-size="20.90">runtime.lock</text>
<text text-anchor="end" x="372.5" y="-190.78" font-family="Times,serif" font-size="20.90">201 (6.7%)</text>
<text text-anchor="end" x="372.5" y="-167.78" font-family="Times,serif" font-size="20.90">of 934 (31.1%)</text>
</g>
<!-- N4&#45;&gt;N6 -->
<g id="edge16" class="edge"><title>N4&#45;&gt;N6</title>
<path fill="none" stroke="black" d="M309,-289.656C309,-275.469 309,-259.552 309,-244.966"/>
<polygon fill="black" stroke="black" points="312.5,-244.625 309,-234.625 305.5,-244.625 312.5,-244.625"/>
<text text-anchor="middle" x="319.5" y="-260.3" font-family="Times,serif" font-size="14.00">468</text>
</g>
<!-- N7 -->
<g id="node8" class="node"><title>N7</title>
<polygon fill="none" stroke="black" points="553.25,-237.5 398.75,-237.5 398.75,-154.5 553.25,-154.5 553.25,-237.5"/>
<text text-anchor="middle" x="476" y="-215.42" font-family="Times,serif" font-size="22.60">runtime.unlock</text>
<text text-anchor="end" x="545.5" y="-190.42" font-family="Times,serif" font-size="22.60">254 (8.5%)</text>
<text text-anchor="end" x="545.5" y="-165.42" font-family="Times,serif" font-size="22.60">of 933 (31.1%)</text>
</g>
<!-- N4&#45;&gt;N7 -->
<g id="edge19" class="edge"><title>N4&#45;&gt;N7</title>
<path fill="none" stroke="black" d="M337.41,-289.917C346.618,-278.082 357.46,-265.784 369,-256 375.513,-250.478 382.623,-245.235 389.981,-240.318"/>
<polygon fill="black" stroke="black" points="392.197,-243.054 398.712,-234.699 388.409,-237.168 392.197,-243.054"/>
<text text-anchor="middle" x="379.5" y="-260.3" font-family="Times,serif" font-size="14.00">473</text>
</g>
<!-- N14 -->
<g id="node15" class="node"><title>N14</title>
<polygon fill="none" stroke="black" points="730.25,-219 571.75,-219 571.75,-173 730.25,-173 730.25,-219"/>
<text text-anchor="middle" x="651" y="-201.16" font-family="Times,serif" font-size="17.30">runtime.nilintercopy</text>
<text text-anchor="end" x="722.5" y="-182.16" font-family="Times,serif" font-size="17.30">103 (3.4%)</text>
</g>
<!-- N4&#45;&gt;N14 -->
<g id="edge23" class="edge"><title>N4&#45;&gt;N14</title>
<path fill="none" stroke="black" d="M396.779,-289.92C409.277,-283.913 421.967,-277.805 434,-272 448.681,-264.918 451.524,-261.117 467,-256 507.801,-242.508 521.068,-251.088 562,-238 574.274,-234.075 587.077,-228.883 599.021,-223.518"/>
<polygon fill="black" stroke="black" points="600.774,-226.564 608.39,-219.199 597.843,-220.207 600.774,-226.564"/>
<text text-anchor="middle" x="474" y="-260.3" font-family="Times,serif" font-size="14.00">62</text>
</g>
<!-- N15 -->
<g id="node16" class="node"><title>N15</title>
<polygon fill="none" stroke="black" points="825.25,-217 748.75,-217 748.75,-175 825.25,-175 825.25,-217"/>
<text text-anchor="middle" x="787" y="-200.52" font-family="Times,serif" font-size="15.60">dequeue</text>
<text text-anchor="end" x="817.5" y="-183.52" font-family="Times,serif" font-size="15.60">70 (2.3%)</text>
</g>
<!-- N4&#45;&gt;N15 -->
<g id="edge5" class="edge"><title>N4&#45;&gt;N15</title>
<path fill="none" stroke="black" d="M396.685,-292.94C399.81,-291.898 402.921,-290.913 406,-290 451.812,-276.408 465.213,-281.717 512,-272 541.13,-265.95 547.708,-261.209 577,-256 648.324,-243.315 672.526,-266.796 739,-238 746.778,-234.631 754.238,-229.555 760.861,-224.111"/>
<polygon fill="black" stroke="black" points="763.594,-226.367 768.765,-217.12 758.956,-221.124 763.594,-226.367"/>
<text text-anchor="middle" x="584" y="-260.3" font-family="Times,serif" font-size="14.00">50</text>
</g>
<!-- N5 -->
<g id="node6" class="node"><title>N5</title>
<polygon fill="none" stroke="black" points="581.25,-374.5 414.75,-374.5 414.75,-291.5 581.25,-291.5 581.25,-374.5"/>
<text text-anchor="middle" x="498" y="-352.02" font-family="Times,serif" font-size="23.10">chansend</text>
<text text-anchor="end" x="573.5" y="-327.02" font-family="Times,serif" font-size="23.10">274 (9.1%)</text>
<text text-anchor="end" x="573.5" y="-302.02" font-family="Times,serif" font-size="23.10">of 1259 (42.0%)</text>
</g>
<!-- N5&#45;&gt;N6 -->
<g id="edge22" class="edge"><title>N5&#45;&gt;N6</title>
<path fill="none" stroke="black" d="M441.294,-291.496C418.827,-275.448 392.948,-256.963 370.07,-240.621"/>
<polygon fill="black" stroke="black" points="371.96,-237.67 361.788,-234.706 367.891,-243.366 371.96,-237.67"/>
<text text-anchor="middle" x="419.5" y="-260.3" font-family="Times,serif" font-size="14.00">466</text>
</g>
<!-- N5&#45;&gt;N7 -->
<g id="edge13" class="edge"><title>N5&#45;&gt;N7</title>
<path fill="none" stroke="black" d="M491.399,-291.496C489.179,-277.871 486.672,-262.49 484.336,-248.155"/>
<polygon fill="black" stroke="black" points="487.735,-247.249 482.672,-237.942 480.826,-248.375 487.735,-247.249"/>
<text text-anchor="middle" x="497.5" y="-260.3" font-family="Times,serif" font-size="14.00">459</text>
</g>
<!-- N5&#45;&gt;N14 -->
<g id="edge12" class="edge"><title>N5&#45;&gt;N14</title>
<path fill="none" stroke="black" d="M570.408,-291.496C579.061,-285.434 587.481,-278.889 595,-272 609.09,-259.091 622.051,-242.216 631.948,-227.743"/>
<polygon fill="black" stroke="black" points="635.074,-229.364 637.697,-219.099 629.245,-225.487 635.074,-229.364"/>
<text text-anchor="middle" x="616" y="-260.3" font-family="Times,serif" font-size="14.00">41</text>
</g>
<!-- N5&#45;&gt;N15 -->
<g id="edge11" class="edge"><title>N5&#45;&gt;N15</title>
<path fill="none" stroke="black" d="M581.253,-293.983C584.535,-292.617 587.793,-291.285 591,-290 655.719,-264.072 678.579,-272.787 739,-238 745.945,-234.001 752.839,-228.942 759.145,-223.754"/>
<polygon fill="black" stroke="black" points="761.481,-226.36 766.776,-217.183 756.914,-221.055 761.481,-226.36"/>
<text text-anchor="middle" x="707" y="-260.3" font-family="Times,serif" font-size="14.00">19</text>
</g>
<!-- N6&#45;&gt;N3 -->
<g id="edge2" class="edge"><title>N6&#45;&gt;N3</title>
<path fill="none" stroke="black" stroke-width="1.46649" d="M309,-157.428C309,-143.712 309,-127.828 309,-112.617"/>
<polygon fill="black" stroke="black" stroke-width="1.46649" points="312.5,-112.228 309,-102.228 305.5,-112.228 312.5,-112.228"/>
<text text-anchor="middle" x="319.5" y="-124.3" font-family="Times,serif" font-size="14.00">733</text>
</g>
<!-- N7&#45;&gt;N3 -->
<g id="edge15" class="edge"><title>N7&#45;&gt;N3</title>
<path fill="none" stroke="black" stroke-width="1.35845" d="M428.591,-154.404C412.117,-140.298 393.323,-124.204 375.59,-109.02"/>
<polygon fill="black" stroke="black" stroke-width="1.35845" points="377.402,-105.964 367.529,-102.118 372.849,-111.281 377.402,-105.964"/>
<text text-anchor="middle" x="412.5" y="-124.3" font-family="Times,serif" font-size="14.00">679</text>
</g>
<!-- N11 -->
<g id="node12" class="node"><title>N11</title>
<polygon fill="none" stroke="black" points="832,-484 702,-484 702,-428 832,-428 832,-484"/>
<text text-anchor="middle" x="767" y="-468.16" font-family="Times,serif" font-size="14.80">runtime.chansend1</text>
<text text-anchor="end" x="824" y="-452.16" font-family="Times,serif" font-size="14.80">55 (1.8%)</text>
<text text-anchor="end" x="824" y="-436.16" font-family="Times,serif" font-size="14.80">of 709 (23.6%)</text>
</g>
<!-- N8&#45;&gt;N11 -->
<g id="edge6" class="edge"><title>N8&#45;&gt;N11</title>
<path fill="none" stroke="black" stroke-width="1.41847" d="M715.878,-539.406C724.483,-525.535 735.256,-508.17 744.691,-492.961"/>
<polygon fill="black" stroke="black" stroke-width="1.41847" points="747.767,-494.641 750.065,-484.299 741.819,-490.951 747.767,-494.641"/>
<text text-anchor="middle" x="747.5" y="-506.3" font-family="Times,serif" font-size="14.00">709</text>
</g>
<!-- N16 -->
<g id="node17" class="node"><title>N16</title>
<polygon fill="none" stroke="black" points="683.5,-479.5 582.5,-479.5 582.5,-432.5 683.5,-432.5 683.5,-479.5"/>
<text text-anchor="middle" x="633" y="-465.74" font-family="Times,serif" font-size="12.20">runtime.convT2E</text>
<text text-anchor="end" x="676" y="-452.74" font-family="Times,serif" font-size="12.20">21 (0.7%)</text>
<text text-anchor="end" x="676" y="-439.74" font-family="Times,serif" font-size="12.20">of 70 (2.3%)</text>
</g>
<!-- N8&#45;&gt;N16 -->
<g id="edge14" class="edge"><title>N8&#45;&gt;N16</title>
<path fill="none" stroke="black" d="M684.122,-539.406C674.653,-524.143 662.559,-504.647 652.511,-488.451"/>
<polygon fill="black" stroke="black" points="655.415,-486.493 647.169,-479.84 649.467,-490.183 655.415,-486.493"/>
<text text-anchor="middle" x="677" y="-506.3" font-family="Times,serif" font-size="14.00">70</text>
</g>
<!-- N12 -->
<g id="node13" class="node"><title>N12</title>
<polygon fill="none" stroke="black" points="282,-482.5 164,-482.5 164,-429.5 282,-429.5 282,-482.5"/>
<text text-anchor="middle" x="223" y="-467.38" font-family="Times,serif" font-size="13.90">runtime.chanrecv2</text>
<text text-anchor="end" x="274" y="-452.38" font-family="Times,serif" font-size="13.90">42 (1.4%)</text>
<text text-anchor="end" x="274" y="-437.38" font-family="Times,serif" font-size="13.90">of 707 (23.6%)</text>
</g>
<!-- N9&#45;&gt;N12 -->
<g id="edge18" class="edge"><title>N9&#45;&gt;N12</title>
<path fill="none" stroke="black" stroke-width="1.41447" d="M223,-542.36C223,-528.051 223,-509.247 223,-492.931"/>
<polygon fill="black" stroke="black" stroke-width="1.41447" points="226.5,-492.64 223,-482.64 219.5,-492.641 226.5,-492.64"/>
<text text-anchor="middle" x="233.5" y="-506.3" font-family="Times,serif" font-size="14.00">707</text>
</g>
<!-- N10&#45;&gt;N4 -->
<g id="edge4" class="edge"><title>N10&#45;&gt;N4</title>
<path fill="none" stroke="black" stroke-width="1.39647" d="M347.972,-432.241C342.75,-419.079 335.955,-401.948 329.504,-385.686"/>
<polygon fill="black" stroke="black" stroke-width="1.39647" points="332.7,-384.253 325.76,-376.248 326.194,-386.834 332.7,-384.253"/>
<text text-anchor="middle" x="348.5" y="-398.3" font-family="Times,serif" font-size="14.00">698</text>
</g>
<!-- N11&#45;&gt;N5 -->
<g id="edge7" class="edge"><title>N11&#45;&gt;N5</title>
<path fill="none" stroke="black" stroke-width="1.30043" d="M723.334,-427.927C703.341,-416.345 679.016,-403.362 656,-394 628.233,-382.705 619.188,-386.199 591,-376 590.901,-375.964 590.802,-375.928 590.703,-375.892"/>
<polygon fill="black" stroke="black" stroke-width="1.30043" points="591.993,-372.638 581.401,-372.396 589.53,-379.191 591.993,-372.638"/>
<text text-anchor="middle" x="697.5" y="-398.3" font-family="Times,serif" font-size="14.00">650</text>
</g>
<!-- N12&#45;&gt;N4 -->
<g id="edge21" class="edge"><title>N12&#45;&gt;N4</title>
<path fill="none" stroke="black" stroke-width="1.33044" d="M241.238,-429.339C250.474,-416.345 262.021,-400.098 272.953,-384.717"/>
<polygon fill="black" stroke="black" stroke-width="1.33044" points="276.004,-386.467 278.944,-376.288 270.298,-382.411 276.004,-386.467"/>
<text text-anchor="middle" x="276.5" y="-398.3" font-family="Times,serif" font-size="14.00">665</text>
</g>
<!-- N13&#45;&gt;N5 -->
<g id="edge17" class="edge"><title>N13&#45;&gt;N5</title>
<path fill="none" stroke="black" stroke-width="1.21841" d="M498,-429.339C498,-416.488 498,-400.455 498,-385.226"/>
<polygon fill="black" stroke="black" stroke-width="1.21841" points="501.5,-384.86 498,-374.86 494.5,-384.86 501.5,-384.86"/>
<text text-anchor="middle" x="508.5" y="-398.3" font-family="Times,serif" font-size="14.00">609</text>
</g>
<!-- N17 -->
<g id="node18" class="node"><title>N17</title>
<polygon fill="none" stroke="black" points="686,-359.5 600,-359.5 600,-306.5 686,-306.5 686,-359.5"/>
<text text-anchor="middle" x="643" y="-344.38" font-family="Times,serif" font-size="13.90">copyin</text>
<text text-anchor="end" x="678" y="-329.38" font-family="Times,serif" font-size="13.90">42 (1.4%)</text>
<text text-anchor="end" x="678" y="-314.38" font-family="Times,serif" font-size="13.90">of 49 (1.6%)</text>
</g>
<!-- N16&#45;&gt;N17 -->
<g id="edge1" class="edge"><title>N16&#45;&gt;N17</title>
<path fill="none" stroke="black" d="M634.881,-432.241C636.336,-414.635 638.378,-389.93 640.05,-369.7"/>
<polygon fill="black" stroke="black" points="643.55,-369.844 640.885,-359.589 636.573,-369.267 643.55,-369.844"/>
<text text-anchor="middle" x="645" y="-398.3" font-family="Times,serif" font-size="14.00">49</text>
</g>
</g>
</g></svg>
