<?xml version="1.0" encoding="UTF-8" standalone="no"?>
<!DOCTYPE svg PUBLIC "-//W3C//DTD SVG 1.1//EN"
 "http://www.w3.org/Graphics/SVG/1.1/DTD/svg11.dtd">
<!-- Generated by graphviz version 2.36.0 (20140111.2315)
 -->
<!-- Title: ./example; 5984 samples Pages: 1 -->
<svg width="100%" height="100%"
  xmlns="http://www.w3.org/2000/svg" xmlns:xlink="http://www.w3.org/1999/xlink">
<script type="text/ecmascript"><![CDATA[
// SVGPan
// http://www.cyberz.org/blog/2009/12/08/svgpan-a-javascript-svg-panzoomdrag-library/
// Local modification: if(true || ...) below to force panning, never moving.
// Local modification: add clamping to fix bug in handleMouseWheel.

/**
 *  SVGPan library 1.2
 * ====================
 *
 * Given an unique existing element with id "viewport", including the
 * the library into any SVG adds the following capabilities:
 *
 *  - Mouse panning
 *  - Mouse zooming (using the wheel)
 *  - Object dargging
 *
 * Known issues:
 *
 *  - Zooming (while panning) on Safari has still some issues
 *
 * Releases:
 *
 * 1.2, Sat Mar 20 08:42:50 GMT 2010, Zeng Xiaohui
 *	Fixed a bug with browser mouse handler interaction
 *
 * 1.1, Wed Feb  3 17:39:33 GMT 2010, Zeng Xiaohui
 *	Updated the zoom code to support the mouse wheel on Safari/Chrome
 *
 * 1.0, Andrea Leofreddi
 *	First release
 *
 * This code is licensed under the following BSD license:
 *
 * Copyright 2009-2010 Andrea Leofreddi <a.leofreddi@itcharm.com>. All rights reserved.
 *
 * Redistribution and use in source and binary forms, with or without modification, are
 * permitted provided that the following conditions are met:
 *
 *    1. Redistributions of source code must retain the above copyright notice, this list of
 *       conditions and the following disclaimer.
 *
 *    2. Redistributions in binary form must reproduce the above copyright notice, this list
 *       of conditions and the following disclaimer in the documentation and/or other materials
 *       provided with the distribution.
 *
 * THIS SOFTWARE IS PROVIDED BY Andrea Leofreddi ``AS IS'' AND ANY EXPRESS OR IMPLIED
 * WARRANTIES, INCLUDING, BUT NOT LIMITED TO, THE IMPLIED WARRANTIES OF MERCHANTABILITY AND
 * FITNESS FOR A PARTICULAR PURPOSE ARE DISCLAIMED. IN NO EVENT SHALL Andrea Leofreddi OR
 * CONTRIBUTORS BE LIABLE FOR ANY DIRECT, INDIRECT, INCIDENTAL, SPECIAL, EXEMPLARY, OR
 * CONSEQUENTIAL DAMAGES (INCLUDING, BUT NOT LIMITED TO, PROCUREMENT OF SUBSTITUTE GOODS OR
 * SERVICES; LOSS OF USE, DATA, OR PROFITS; OR BUSINESS INTERRUPTION) HOWEVER CAUSED AND ON
 * ANY THEORY OF LIABILITY, WHETHER IN CONTRACT, STRICT LIABILITY, OR TORT (INCLUDING
 * NEGLIGENCE OR OTHERWISE) ARISING IN ANY WAY OUT OF THE USE OF THIS SOFTWARE, EVEN IF
 * ADVISED OF THE POSSIBILITY OF SUCH DAMAGE.
 *
 * The views and conclusions contained in the software and documentation are those of the
 * authors and should not be interpreted as representing official policies, either expressed
 * or implied, of Andrea Leofreddi.
 */

var root = document.documentElement;

var state = 'none', stateTarget, stateOrigin, stateTf;

setupHandlers(root);

/**
 * Register handlers
 */
function setupHandlers(root){
	setAttributes(root, {
		"onmouseup" : "add(evt)",
		"onmousedown" : "handleMouseDown(evt)",
		"onmousemove" : "handleMouseMove(evt)",
		"onmouseup" : "handleMouseUp(evt)",
		//"onmouseout" : "handleMouseUp(evt)", // Decomment this to stop the pan functionality when dragging out of the SVG element
	});

	if(navigator.userAgent.toLowerCase().indexOf('webkit') >= 0)
		window.addEventListener('mousewheel', handleMouseWheel, false); // Chrome/Safari
	else
		window.addEventListener('DOMMouseScroll', handleMouseWheel, false); // Others

	var g = svgDoc.getElementById("svg");
	g.width = "100%";
	g.height = "100%";
}

/**
 * Instance an SVGPoint object with given event coordinates.
 */
function getEventPoint(evt) {
	var p = root.createSVGPoint();

	p.x = evt.clientX;
	p.y = evt.clientY;

	return p;
}

/**
 * Sets the current transform matrix of an element.
 */
function setCTM(element, matrix) {
	var s = "matrix(" + matrix.a + "," + matrix.b + "," + matrix.c + "," + matrix.d + "," + matrix.e + "," + matrix.f + ")";

	element.setAttribute("transform", s);
}

/**
 * Dumps a matrix to a string (useful for debug).
 */
function dumpMatrix(matrix) {
	var s = "[ " + matrix.a + ", " + matrix.c + ", " + matrix.e + "\n  " + matrix.b + ", " + matrix.d + ", " + matrix.f + "\n  0, 0, 1 ]";

	return s;
}

/**
 * Sets attributes of an element.
 */
function setAttributes(element, attributes){
	for (i in attributes)
		element.setAttributeNS(null, i, attributes[i]);
}

/**
 * Handle mouse move event.
 */
function handleMouseWheel(evt) {
	if(evt.preventDefault)
		evt.preventDefault();

	evt.returnValue = false;

	var svgDoc = evt.target.ownerDocument;

	var delta;

	if(evt.wheelDelta)
		delta = evt.wheelDelta / 3600; // Chrome/Safari
	else
		delta = evt.detail / -90; // Mozilla

	var z = 1 + delta; // Zoom factor: 0.9/1.1

	// Clamp to reasonable values.
	// The 0.1 check is important because
	// a very large scroll can turn into a
	// negative z, which rotates the image 180 degrees.
	if(z < 0.1)
		z = 0.1;
	if(z > 10.0)
		z = 10.0;

	var g = svgDoc.getElementById("viewport");

	var p = getEventPoint(evt);

	p = p.matrixTransform(g.getCTM().inverse());

	// Compute new scale matrix in current mouse position
	var k = root.createSVGMatrix().translate(p.x, p.y).scale(z).translate(-p.x, -p.y);

        setCTM(g, g.getCTM().multiply(k));

	stateTf = stateTf.multiply(k.inverse());
}

/**
 * Handle mouse move event.
 */
function handleMouseMove(evt) {
	if(evt.preventDefault)
		evt.preventDefault();

	evt.returnValue = false;

	var svgDoc = evt.target.ownerDocument;

	var g = svgDoc.getElementById("viewport");

	if(state == 'pan') {
		// Pan mode
		var p = getEventPoint(evt).matrixTransform(stateTf);

		setCTM(g, stateTf.inverse().translate(p.x - stateOrigin.x, p.y - stateOrigin.y));
	} else if(state == 'move') {
		// Move mode
		var p = getEventPoint(evt).matrixTransform(g.getCTM().inverse());

		setCTM(stateTarget, root.createSVGMatrix().translate(p.x - stateOrigin.x, p.y - stateOrigin.y).multiply(g.getCTM().inverse()).multiply(stateTarget.getCTM()));

		stateOrigin = p;
	}
}

/**
 * Handle click event.
 */
function handleMouseDown(evt) {
	if(evt.preventDefault)
		evt.preventDefault();

	evt.returnValue = false;

	var svgDoc = evt.target.ownerDocument;

	var g = svgDoc.getElementById("viewport");

	if(true || evt.target.tagName == "svg") {
		// Pan mode
		state = 'pan';

		stateTf = g.getCTM().inverse();

		stateOrigin = getEventPoint(evt).matrixTransform(stateTf);
	} else {
		// Move mode
		state = 'move';

		stateTarget = evt.target;

		stateTf = g.getCTM().inverse();

		stateOrigin = getEventPoint(evt).matrixTransform(stateTf);
	}
}

/**
 * Handle mouse button release event.
 */
function handleMouseUp(evt) {
	if(evt.preventDefault)
		evt.preventDefault();

	evt.returnValue = false;

	var svgDoc = evt.target.ownerDocument;

	if(state == 'pan' || state == 'move') {
		// Quit pan mode
		state = '';
	}
}

]]></script>
<g id="viewport" transform="translate(0,0)">
<g id="viewport" class="graph" transform="scale(1 1) rotate(0) translate(4 842)">
<title>./example; 5984 samples</title>
<polygon fill="white" stroke="none" points="-4,4 -4,-842 1262,-842 1262,4 -4,4"/>
<!-- Legend -->
<g id="node1" class="node"><title>Legend</title>
<text text-anchor="start" x="284" y="-814.8" font-family="Times,serif" font-size="24.00">./example</text>
<text text-anchor="start" x="284" y="-788.8" font-family="Times,serif" font-size="24.00">Total samples: 5984</text>
<text text-anchor="start" x="284" y="-762.8" font-family="Times,serif" font-size="24.00">Focusing on: 5984</text>
<text text-anchor="start" x="284" y="-736.8" font-family="Times,serif" font-size="24.00">Dropped nodes with &lt;= 29 abs(samples)</text>
<text text-anchor="start" x="284" y="-710.8" font-family="Times,serif" font-size="24.00">Dropped edges with &lt;= 5 samples</text>
</g>
<!-- N1 -->
<g id="node2" class="node"><title>N1</title>
<polygon fill="none" stroke="black" points="771.25,-786.5 698.75,-786.5 698.75,-751.5 771.25,-751.5 771.25,-786.5"/>
<text text-anchor="middle" x="735" y="-776.1" font-family="Times,serif" font-size="8.00">runtime.gosched0</text>
<text text-anchor="end" x="763.5" y="-767.1" font-family="Times,serif" font-size="8.00">0 (0.0%)</text>
<text text-anchor="end" x="763.5" y="-758.1" font-family="Times,serif" font-size="8.00">of 5501 (91.9%)</text>
</g>
<!-- N2 -->
<g id="node3" class="node"><title>N2</title>
<polygon fill="none" stroke="black" points="889,-648 581,-648 581,-598 889,-598 889,-648"/>
<text text-anchor="middle" x="735" y="-633.52" font-family="Times,serif" font-size="13.10">github.com/wheelcomplex/goqueue.(*Stack).manager</text>
<text text-anchor="end" x="881" y="-619.52" font-family="Times,serif" font-size="13.10">63 (1.1%)</text>
<text text-anchor="end" x="881" y="-605.52" font-family="Times,serif" font-size="13.10">of 2978 (49.8%)</text>
</g>
<!-- N1&#45;&gt;N2 -->
<g id="edge20" class="edge"><title>N1&#45;&gt;N2</title>
<path fill="none" stroke="black" stroke-width="2" d="M735,-751.481C735,-728.914 735,-687.894 735,-658.475"/>
<polygon fill="black" stroke="black" stroke-width="2" points="738.5,-658.217 735,-648.217 731.5,-658.217 738.5,-658.217"/>
<text text-anchor="middle" x="749" y="-670.3" font-family="Times,serif" font-size="14.00">2978</text>
</g>
<!-- N7 -->
<g id="node8" class="node"><title>N7</title>
<polygon fill="none" stroke="black" points="1002.25,-646.5 907.75,-646.5 907.75,-599.5 1002.25,-599.5 1002.25,-646.5"/>
<text text-anchor="middle" x="955" y="-632.74" font-family="Times,serif" font-size="12.20">main.stackIn</text>
<text text-anchor="end" x="994.5" y="-619.74" font-family="Times,serif" font-size="12.20">43 (0.7%)</text>
<text text-anchor="end" x="994.5" y="-606.74" font-family="Times,serif" font-size="12.20">of 1469 (24.5%)</text>
</g>
<!-- N1&#45;&gt;N7 -->
<g id="edge35" class="edge"><title>N1&#45;&gt;N7</title>
<path fill="none" stroke="black" stroke-width="1.47293" d="M760.237,-751.481C797.242,-727.26 866.72,-681.783 911.907,-652.206"/>
<polygon fill="black" stroke="black" stroke-width="1.47293" points="913.876,-655.101 920.326,-646.696 910.042,-649.244 913.876,-655.101"/>
<text text-anchor="middle" x="903" y="-670.3" font-family="Times,serif" font-size="14.00">1469</text>
</g>
<!-- N12 -->
<g id="node13" class="node"><title>N12</title>
<polygon fill="none" stroke="black" points="562.5,-645 475.5,-645 475.5,-601 562.5,-601 562.5,-645"/>
<text text-anchor="middle" x="519" y="-632.04" font-family="Times,serif" font-size="11.20">main.stackOut</text>
<text text-anchor="end" x="555" y="-620.04" font-family="Times,serif" font-size="11.20">25 (0.4%)</text>
<text text-anchor="end" x="555" y="-608.04" font-family="Times,serif" font-size="11.20">of 1054 (17.6%)</text>
</g>
<!-- N1&#45;&gt;N12 -->
<g id="edge15" class="edge"><title>N1&#45;&gt;N12</title>
<path fill="none" stroke="black" stroke-width="1.05682" d="M727.079,-751.222C719.228,-736.12 705.938,-714.184 689,-700 645.372,-663.466 623.919,-671.292 572,-648 571.905,-647.957 571.81,-647.915 571.715,-647.872"/>
<polygon fill="black" stroke="black" stroke-width="1.05682" points="573.218,-644.71 562.662,-643.8 570.346,-651.094 573.218,-644.71"/>
<text text-anchor="middle" x="676" y="-670.3" font-family="Times,serif" font-size="14.00">1054</text>
</g>
<!-- N6 -->
<g id="node7" class="node"><title>N6</title>
<polygon fill="none" stroke="black" points="750,-545.5 636,-545.5 636,-498.5 750,-498.5 750,-545.5"/>
<text text-anchor="middle" x="693" y="-532.06" font-family="Times,serif" font-size="11.80">runtime.selectnbrecv</text>
<text text-anchor="end" x="742" y="-519.06" font-family="Times,serif" font-size="11.80">34 (0.6%)</text>
<text text-anchor="end" x="742" y="-506.06" font-family="Times,serif" font-size="11.80">of 1600 (26.7%)</text>
</g>
<!-- N2&#45;&gt;N6 -->
<g id="edge18" class="edge"><title>N2&#45;&gt;N6</title>
<path fill="none" stroke="black" stroke-width="1.60428" d="M724.726,-597.782C719.24,-584.852 712.42,-568.776 706.511,-554.846"/>
<polygon fill="black" stroke="black" stroke-width="1.60428" points="709.72,-553.45 702.592,-545.611 703.276,-556.184 709.72,-553.45"/>
<text text-anchor="middle" x="730" y="-568.3" font-family="Times,serif" font-size="14.00">1600</text>
</g>
<!-- N11 -->
<g id="node12" class="node"><title>N11</title>
<polygon fill="none" stroke="black" points="883.5,-545.5 768.5,-545.5 768.5,-498.5 883.5,-498.5 883.5,-545.5"/>
<text text-anchor="middle" x="826" y="-532.3" font-family="Times,serif" font-size="11.50">runtime.selectnbsend</text>
<text text-anchor="end" x="876" y="-519.3" font-family="Times,serif" font-size="11.50">30 (0.5%)</text>
<text text-anchor="end" x="876" y="-506.3" font-family="Times,serif" font-size="11.50">of 1250 (20.9%)</text>
</g>
<!-- N2&#45;&gt;N11 -->
<g id="edge13" class="edge"><title>N2&#45;&gt;N11</title>
<path fill="none" stroke="black" stroke-width="1.25334" d="M757.261,-597.782C769.603,-584.355 785.064,-567.535 798.195,-553.249"/>
<polygon fill="black" stroke="black" stroke-width="1.25334" points="801.026,-555.342 805.216,-545.611 795.872,-550.605 801.026,-555.342"/>
<text text-anchor="middle" x="799" y="-568.3" font-family="Times,serif" font-size="14.00">1250</text>
</g>
<!-- N3 -->
<g id="node4" class="node"><title>N3</title>
<polygon fill="none" stroke="black" points="934,-320 770,-320 770,-240 934,-240 934,-320"/>
<text text-anchor="middle" x="852" y="-298.24" font-family="Times,serif" font-size="22.20">runtime.lock</text>
<text text-anchor="end" x="926" y="-274.24" font-family="Times,serif" font-size="22.20">482 (8.1%)</text>
<text text-anchor="end" x="926" y="-250.24" font-family="Times,serif" font-size="22.20">of 2826 (47.2%)</text>
</g>
<!-- N10 -->
<g id="node11" class="node"><title>N10</title>
<polygon fill="none" stroke="black" points="422.25,-188 233.75,-188 233.75,-112 422.25,-112 422.25,-188"/>
<text text-anchor="middle" x="328" y="-159.04" font-family="Times,serif" font-size="31.20">runtime.xchg</text>
<text text-anchor="end" x="414.5" y="-125.04" font-family="Times,serif" font-size="31.20">1283 (21.4%)</text>
</g>
<!-- N3&#45;&gt;N10 -->
<g id="edge32" class="edge"><title>N3&#45;&gt;N10</title>
<path fill="none" stroke="black" d="M776.959,-239.923C748.572,-226.889 715.503,-213.73 684,-206 578.038,-180.001 543.831,-209.275 432.3,-187.795"/>
<polygon fill="black" stroke="black" points="432.842,-184.334 422.347,-185.785 431.457,-191.196 432.842,-184.334"/>
<text text-anchor="middle" x="741.5" y="-210.3" font-family="Times,serif" font-size="14.00">609</text>
</g>
<!-- N14 -->
<g id="node15" class="node"><title>N14</title>
<polygon fill="none" stroke="black" points="990,-185 772,-185 772,-115 990,-115 990,-185"/>
<text text-anchor="middle" x="881" y="-158.36" font-family="Times,serif" font-size="28.30">runtime.procyield</text>
<text text-anchor="end" x="982" y="-127.36" font-family="Times,serif" font-size="28.30">985 (16.5%)</text>
</g>
<!-- N3&#45;&gt;N14 -->
<g id="edge25" class="edge"><title>N3&#45;&gt;N14</title>
<path fill="none" stroke="black" d="M860.859,-239.9C864.08,-225.683 867.741,-209.524 871.05,-194.918"/>
<polygon fill="black" stroke="black" points="874.479,-195.623 873.275,-185.097 867.652,-194.076 874.479,-195.623"/>
<text text-anchor="middle" x="878.5" y="-210.3" font-family="Times,serif" font-size="14.00">985</text>
</g>
<!-- N17 -->
<g id="node18" class="node"><title>N17</title>
<polygon fill="none" stroke="black" points="1157.25,-177 1008.75,-177 1008.75,-123 1157.25,-123 1157.25,-177"/>
<text text-anchor="middle" x="1083" y="-156.04" font-family="Times,serif" font-size="21.20">runtime.osyield</text>
<text text-anchor="end" x="1149.5" y="-133.04" font-family="Times,serif" font-size="21.20">414 (6.9%)</text>
</g>
<!-- N3&#45;&gt;N17 -->
<g id="edge10" class="edge"><title>N3&#45;&gt;N17</title>
<path fill="none" stroke="black" d="M922.563,-239.9C956.014,-221.365 995.422,-199.528 1026.81,-182.135"/>
<polygon fill="black" stroke="black" points="1028.81,-185.03 1035.86,-177.122 1025.41,-178.908 1028.81,-185.03"/>
<text text-anchor="middle" x="991.5" y="-210.3" font-family="Times,serif" font-size="14.00">414</text>
</g>
<!-- N20 -->
<g id="node21" class="node"><title>N20</title>
<polygon fill="none" stroke="black" points="753.25,-173 658.75,-173 658.75,-127 753.25,-127 753.25,-173"/>
<text text-anchor="middle" x="706" y="-155.32" font-family="Times,serif" font-size="17.10">runtime.cas</text>
<text text-anchor="end" x="745.5" y="-136.32" font-family="Times,serif" font-size="17.10">199 (3.3%)</text>
</g>
<!-- N3&#45;&gt;N20 -->
<g id="edge5" class="edge"><title>N3&#45;&gt;N20</title>
<path fill="none" stroke="black" d="M807.402,-239.9C785.34,-220.559 759.179,-197.622 738.955,-179.892"/>
<polygon fill="black" stroke="black" points="741.065,-177.088 731.239,-173.127 736.451,-182.351 741.065,-177.088"/>
<text text-anchor="middle" x="793.5" y="-210.3" font-family="Times,serif" font-size="14.00">189</text>
</g>
<!-- N22 -->
<g id="node23" class="node"><title>N22</title>
<polygon fill="none" stroke="black" points="1258,-169 1176,-169 1176,-131 1258,-131 1258,-169"/>
<text text-anchor="middle" x="1217" y="-157.72" font-family="Times,serif" font-size="9.10">runtime.futexsleep</text>
<text text-anchor="end" x="1250" y="-147.72" font-family="Times,serif" font-size="9.10">3 (0.1%)</text>
<text text-anchor="end" x="1250" y="-137.72" font-family="Times,serif" font-size="9.10">of 147 (2.5%)</text>
</g>
<!-- N3&#45;&gt;N22 -->
<g id="edge21" class="edge"><title>N3&#45;&gt;N22</title>
<path fill="none" stroke="black" d="M934.091,-243.052C937.084,-241.986 940.06,-240.964 943,-240 1039.7,-208.277 1073.43,-230.273 1166,-188 1173.42,-184.613 1180.84,-180.063 1187.63,-175.313"/>
<polygon fill="black" stroke="black" points="1189.87,-178.008 1195.85,-169.262 1185.73,-172.369 1189.87,-178.008"/>
<text text-anchor="middle" x="1126.5" y="-210.3" font-family="Times,serif" font-size="14.00">147</text>
</g>
<!-- N4 -->
<g id="node5" class="node"><title>N4</title>
<polygon fill="none" stroke="black" points="766.25,-446 619.75,-446 619.75,-372 766.25,-372 766.25,-446"/>
<text text-anchor="middle" x="693" y="-425.84" font-family="Times,serif" font-size="20.20">chanrecv</text>
<text text-anchor="end" x="758.5" y="-403.84" font-family="Times,serif" font-size="20.20">355 (5.9%)</text>
<text text-anchor="end" x="758.5" y="-381.84" font-family="Times,serif" font-size="20.20">of 2557 (42.7%)</text>
</g>
<!-- N4&#45;&gt;N3 -->
<g id="edge3" class="edge"><title>N4&#45;&gt;N3</title>
<path fill="none" stroke="black" stroke-width="1.35963" d="M705.439,-371.864C710.91,-359.942 718.334,-347.354 728,-338 731.322,-334.785 744.144,-328.232 760.364,-320.676"/>
<polygon fill="black" stroke="black" stroke-width="1.35963" points="762.063,-323.747 769.686,-316.39 759.139,-317.387 762.063,-323.747"/>
<text text-anchor="middle" x="742" y="-342.3" font-family="Times,serif" font-size="14.00">1356</text>
</g>
<!-- N8 -->
<g id="node9" class="node"><title>N8</title>
<polygon fill="none" stroke="black" points="399,-315.5 257,-315.5 257,-244.5 399,-244.5 399,-315.5"/>
<text text-anchor="middle" x="328" y="-296.46" font-family="Times,serif" font-size="18.80">runtime.unlock</text>
<text text-anchor="end" x="391" y="-275.46" font-family="Times,serif" font-size="18.80">278 (4.6%)</text>
<text text-anchor="end" x="391" y="-254.46" font-family="Times,serif" font-size="18.80">of 1348 (22.5%)</text>
</g>
<!-- N4&#45;&gt;N8 -->
<g id="edge9" class="edge"><title>N4&#45;&gt;N8</title>
<path fill="none" stroke="black" d="M619.602,-388.701C561.403,-372.598 478.429,-347.848 408,-320 407.677,-319.872 407.353,-319.744 407.029,-319.614"/>
<polygon fill="black" stroke="black" points="408.104,-316.271 397.526,-315.676 405.424,-322.738 408.104,-316.271"/>
<text text-anchor="middle" x="510.5" y="-342.3" font-family="Times,serif" font-size="14.00">647</text>
</g>
<!-- N21 -->
<g id="node22" class="node"><title>N21</title>
<polygon fill="none" stroke="black" points="751.25,-302 600.75,-302 600.75,-258 751.25,-258 751.25,-302"/>
<text text-anchor="middle" x="676" y="-285.12" font-family="Times,serif" font-size="16.10">runtime.nilintercopy</text>
<text text-anchor="end" x="743.5" y="-267.12" font-family="Times,serif" font-size="16.10">158 (2.6%)</text>
</g>
<!-- N4&#45;&gt;N21 -->
<g id="edge24" class="edge"><title>N4&#45;&gt;N21</title>
<path fill="none" stroke="black" d="M656.569,-371.851C652.673,-366.251 649.298,-360.241 647,-354 641.755,-339.755 646.554,-324.096 653.654,-310.946"/>
<polygon fill="black" stroke="black" points="656.703,-312.668 658.842,-302.292 650.699,-309.069 656.703,-312.668"/>
<text text-anchor="middle" x="657.5" y="-342.3" font-family="Times,serif" font-size="14.00">111</text>
</g>
<!-- N23 -->
<g id="node24" class="node"><title>N23</title>
<polygon fill="none" stroke="black" points="582.25,-300 497.75,-300 497.75,-260 582.25,-260 582.25,-300"/>
<text text-anchor="middle" x="540" y="-284.08" font-family="Times,serif" font-size="14.90">dequeue</text>
<text text-anchor="end" x="574.5" y="-268.08" font-family="Times,serif" font-size="14.90">114 (1.9%)</text>
</g>
<!-- N4&#45;&gt;N23 -->
<g id="edge30" class="edge"><title>N4&#45;&gt;N23</title>
<path fill="none" stroke="black" d="M619.525,-394.436C595.412,-386.476 570.576,-373.886 554,-354 543.96,-341.956 540.297,-324.899 539.219,-310.302"/>
<polygon fill="black" stroke="black" points="542.713,-310.074 538.837,-300.214 535.718,-310.339 542.713,-310.074"/>
<text text-anchor="middle" x="561" y="-342.3" font-family="Times,serif" font-size="14.00">67</text>
</g>
<!-- N26 -->
<g id="node27" class="node"><title>N26</title>
<polygon fill="none" stroke="black" points="1028,-302 952,-302 952,-258 1028,-258 1028,-302"/>
<text text-anchor="middle" x="990" y="-289.52" font-family="Times,serif" font-size="10.60">runtime.ready</text>
<text text-anchor="end" x="1020" y="-277.52" font-family="Times,serif" font-size="10.60">16 (0.3%)</text>
<text text-anchor="end" x="1020" y="-265.52" font-family="Times,serif" font-size="10.60">of 32 (0.5%)</text>
</g>
<!-- N4&#45;&gt;N26 -->
<g id="edge16" class="edge"><title>N4&#45;&gt;N26</title>
<path fill="none" stroke="black" d="M760.965,-371.889C789.333,-357.316 819.11,-342.806 834,-338 880.727,-322.917 898.332,-340.386 943,-320 949.351,-317.101 955.545,-313.114 961.241,-308.789"/>
<polygon fill="black" stroke="black" points="963.658,-311.334 969.192,-302.3 959.232,-305.911 963.658,-311.334"/>
<text text-anchor="middle" x="841" y="-342.3" font-family="Times,serif" font-size="14.00">19</text>
</g>
<!-- N5 -->
<g id="node6" class="node"><title>N5</title>
<polygon fill="none" stroke="black" points="919.25,-443 784.75,-443 784.75,-375 919.25,-375 919.25,-443"/>
<text text-anchor="middle" x="852" y="-424.44" font-family="Times,serif" font-size="18.20">chansend</text>
<text text-anchor="end" x="911.5" y="-404.44" font-family="Times,serif" font-size="18.20">249 (4.2%)</text>
<text text-anchor="end" x="911.5" y="-384.44" font-family="Times,serif" font-size="18.20">of 2511 (42.0%)</text>
</g>
<!-- N5&#45;&gt;N3 -->
<g id="edge26" class="edge"><title>N5&#45;&gt;N3</title>
<path fill="none" stroke="black" stroke-width="1.4619" d="M852,-374.964C852,-361.349 852,-345.285 852,-330.327"/>
<polygon fill="black" stroke="black" stroke-width="1.4619" points="855.5,-330.192 852,-320.192 848.5,-330.192 855.5,-330.192"/>
<text text-anchor="middle" x="866" y="-342.3" font-family="Times,serif" font-size="14.00">1458</text>
</g>
<!-- N5&#45;&gt;N8 -->
<g id="edge7" class="edge"><title>N5&#45;&gt;N8</title>
<path fill="none" stroke="black" d="M784.438,-374.97C781.279,-373.884 778.124,-372.885 775,-372 707.85,-352.973 687.268,-368.511 619,-354 595.763,-349.061 591.244,-342.906 568,-338 497.983,-323.222 476.717,-339.969 408,-320 406.924,-319.687 405.845,-319.361 404.764,-319.022"/>
<polygon fill="black" stroke="black" points="405.598,-315.608 395.003,-315.662 403.319,-322.227 405.598,-315.608"/>
<text text-anchor="middle" x="629.5" y="-342.3" font-family="Times,serif" font-size="14.00">696</text>
</g>
<!-- N5&#45;&gt;N21 -->
<g id="edge28" class="edge"><title>N5&#45;&gt;N21</title>
<path fill="none" stroke="black" d="M806.658,-374.782C790.676,-363.114 772.566,-349.941 756,-338 742.382,-328.184 727.408,-317.489 714.135,-308.043"/>
<polygon fill="black" stroke="black" points="715.867,-304.98 705.689,-302.037 711.81,-310.684 715.867,-304.98"/>
<text text-anchor="middle" x="784" y="-342.3" font-family="Times,serif" font-size="14.00">44</text>
</g>
<!-- N5&#45;&gt;N23 -->
<g id="edge22" class="edge"><title>N5&#45;&gt;N23</title>
<path fill="none" stroke="black" d="M784.727,-375.569C781.462,-374.305 778.209,-373.106 775,-372 741.366,-360.402 730.228,-366.715 697,-354 683.252,-348.739 681.733,-343.301 668,-338 635.616,-325.501 623.435,-334.723 592,-320 584.141,-316.319 576.311,-311.33 569.201,-306.151"/>
<polygon fill="black" stroke="black" points="571.297,-303.347 561.228,-300.051 567.044,-308.907 571.297,-303.347"/>
<text text-anchor="middle" x="704" y="-342.3" font-family="Times,serif" font-size="14.00">47</text>
</g>
<!-- N5&#45;&gt;N26 -->
<g id="edge36" class="edge"><title>N5&#45;&gt;N26</title>
<path fill="none" stroke="black" d="M887.898,-374.964C910.089,-354.541 938.267,-328.609 959.397,-309.164"/>
<polygon fill="black" stroke="black" points="961.851,-311.662 966.839,-302.315 957.11,-306.511 961.851,-311.662"/>
<text text-anchor="middle" x="932" y="-342.3" font-family="Times,serif" font-size="14.00">13</text>
</g>
<!-- N6&#45;&gt;N4 -->
<g id="edge14" class="edge"><title>N6&#45;&gt;N4</title>
<path fill="none" stroke="black" stroke-width="1.57019" d="M693,-498.27C693,-486.225 693,-470.971 693,-456.546"/>
<polygon fill="black" stroke="black" stroke-width="1.57019" points="696.5,-456.247 693,-446.247 689.5,-456.247 696.5,-456.247"/>
<text text-anchor="middle" x="707" y="-468.3" font-family="Times,serif" font-size="14.00">1566</text>
</g>
<!-- N9 -->
<g id="node10" class="node"><title>N9</title>
<polygon fill="none" stroke="black" points="1007.5,-545.5 902.5,-545.5 902.5,-498.5 1007.5,-498.5 1007.5,-545.5"/>
<text text-anchor="middle" x="955" y="-532.06" font-family="Times,serif" font-size="11.80">runtime.chansend1</text>
<text text-anchor="end" x="1000" y="-519.06" font-family="Times,serif" font-size="11.80">35 (0.6%)</text>
<text text-anchor="end" x="1000" y="-506.06" font-family="Times,serif" font-size="11.80">of 1343 (22.4%)</text>
</g>
<!-- N7&#45;&gt;N9 -->
<g id="edge34" class="edge"><title>N7&#45;&gt;N9</title>
<path fill="none" stroke="black" stroke-width="1.34659" d="M955,-599.039C955,-586.294 955,-570.216 955,-556.131"/>
<polygon fill="black" stroke="black" stroke-width="1.34659" points="958.5,-555.837 955,-545.837 951.5,-555.837 958.5,-555.837"/>
<text text-anchor="middle" x="969" y="-568.3" font-family="Times,serif" font-size="14.00">1343</text>
</g>
<!-- N24 -->
<g id="node25" class="node"><title>N24</title>
<polygon fill="none" stroke="black" points="1123.5,-544 1026.5,-544 1026.5,-500 1123.5,-500 1123.5,-544"/>
<text text-anchor="middle" x="1075" y="-530.96" font-family="Times,serif" font-size="11.30">runtime.convT2E</text>
<text text-anchor="end" x="1116" y="-518.96" font-family="Times,serif" font-size="11.30">26 (0.4%)</text>
<text text-anchor="end" x="1116" y="-506.96" font-family="Times,serif" font-size="11.30">of 83 (1.4%)</text>
</g>
<!-- N7&#45;&gt;N24 -->
<g id="edge2" class="edge"><title>N7&#45;&gt;N24</title>
<path fill="none" stroke="black" d="M982.53,-599.287C1000.01,-584.866 1022.75,-566.105 1041.31,-550.796"/>
<polygon fill="black" stroke="black" points="1043.75,-553.316 1049.24,-544.252 1039.3,-547.916 1043.75,-553.316"/>
<text text-anchor="middle" x="1029" y="-568.3" font-family="Times,serif" font-size="14.00">83</text>
</g>
<!-- N8&#45;&gt;N10 -->
<g id="edge8" class="edge"><title>N8&#45;&gt;N10</title>
<path fill="none" stroke="black" d="M328,-244.361C328,-230.285 328,-213.789 328,-198.611"/>
<polygon fill="black" stroke="black" points="331.5,-198.36 328,-188.36 324.5,-198.36 331.5,-198.36"/>
<text text-anchor="middle" x="338.5" y="-210.3" font-family="Times,serif" font-size="14.00">664</text>
</g>
<!-- N18 -->
<g id="node19" class="node"><title>N18</title>
<polygon fill="none" stroke="black" points="118.25,-169 23.75,-169 23.75,-131 118.25,-131 118.25,-169"/>
<text text-anchor="middle" x="71" y="-157.48" font-family="Times,serif" font-size="9.40">runtime.futexwakeup</text>
<text text-anchor="end" x="110.5" y="-147.48" font-family="Times,serif" font-size="9.40">5 (0.1%)</text>
<text text-anchor="end" x="110.5" y="-137.48" font-family="Times,serif" font-size="9.40">of 408 (6.8%)</text>
</g>
<!-- N8&#45;&gt;N18 -->
<g id="edge37" class="edge"><title>N8&#45;&gt;N18</title>
<path fill="none" stroke="black" d="M256.896,-250.082C217.821,-233.383 168.917,-211.145 127,-188 119.756,-184 112.221,-179.372 105.115,-174.772"/>
<polygon fill="black" stroke="black" points="106.669,-171.604 96.397,-169.01 102.81,-177.444 106.669,-171.604"/>
<text text-anchor="middle" x="202.5" y="-210.3" font-family="Times,serif" font-size="14.00">406</text>
</g>
<!-- N9&#45;&gt;N5 -->
<g id="edge12" class="edge"><title>N9&#45;&gt;N5</title>
<path fill="none" stroke="black" stroke-width="1.30348" d="M933.908,-498.27C921.263,-484.643 904.808,-466.91 889.967,-450.916"/>
<polygon fill="black" stroke="black" stroke-width="1.30348" points="892.202,-448.179 882.835,-443.23 887.071,-452.941 892.202,-448.179"/>
<text text-anchor="middle" x="929" y="-468.3" font-family="Times,serif" font-size="14.00">1300</text>
</g>
<!-- N11&#45;&gt;N5 -->
<g id="edge17" class="edge"><title>N11&#45;&gt;N5</title>
<path fill="none" stroke="black" stroke-width="1.21424" d="M831.324,-498.27C834.371,-485.262 838.294,-468.513 841.903,-453.107"/>
<polygon fill="black" stroke="black" stroke-width="1.21424" points="845.344,-453.764 844.216,-443.23 838.528,-452.168 845.344,-453.764"/>
<text text-anchor="middle" x="853" y="-468.3" font-family="Times,serif" font-size="14.00">1211</text>
</g>
<!-- N13 -->
<g id="node14" class="node"><title>N13</title>
<polygon fill="none" stroke="black" points="571,-545.5 467,-545.5 467,-498.5 571,-498.5 571,-545.5"/>
<text text-anchor="middle" x="519" y="-531.9" font-family="Times,serif" font-size="12.00">runtime.chanrecv2</text>
<text text-anchor="end" x="563" y="-518.9" font-family="Times,serif" font-size="12.00">38 (0.6%)</text>
<text text-anchor="end" x="563" y="-505.9" font-family="Times,serif" font-size="12.00">of 1029 (17.2%)</text>
</g>
<!-- N12&#45;&gt;N13 -->
<g id="edge31" class="edge"><title>N12&#45;&gt;N13</title>
<path fill="none" stroke="black" stroke-width="1.03175" d="M519,-600.518C519,-587.522 519,-570.684 519,-556.022"/>
<polygon fill="black" stroke="black" stroke-width="1.03175" points="522.5,-555.817 519,-545.817 515.5,-555.818 522.5,-555.817"/>
<text text-anchor="middle" x="533" y="-568.3" font-family="Times,serif" font-size="14.00">1029</text>
</g>
<!-- N13&#45;&gt;N4 -->
<g id="edge19" class="edge"><title>N13&#45;&gt;N4</title>
<path fill="none" stroke="black" d="M554.631,-498.27C575.71,-484.823 603.056,-467.378 627.866,-451.551"/>
<polygon fill="black" stroke="black" points="629.973,-454.358 636.521,-446.03 626.208,-448.457 629.973,-454.358"/>
<text text-anchor="middle" x="616.5" y="-468.3" font-family="Times,serif" font-size="14.00">991</text>
</g>
<!-- N15 -->
<g id="node16" class="node"><title>N15</title>
<polygon fill="none" stroke="black" points="142,-60 0,-60 0,-7.10543e-15 142,-7.10543e-15 142,-60"/>
<text text-anchor="middle" x="71" y="-37.44" font-family="Times,serif" font-size="23.20">runtime.futex</text>
<text text-anchor="end" x="134" y="-11.44" font-family="Times,serif" font-size="23.20">554 (9.3%)</text>
</g>
<!-- N16 -->
<g id="node17" class="node"><title>N16</title>
<polygon fill="none" stroke="black" points="478.5,-297.5 417.5,-297.5 417.5,-262.5 478.5,-262.5 478.5,-297.5"/>
<text text-anchor="middle" x="448" y="-287.1" font-family="Times,serif" font-size="8.00">System</text>
<text text-anchor="end" x="471" y="-278.1" font-family="Times,serif" font-size="8.00">0 (0.0%)</text>
<text text-anchor="end" x="471" y="-269.1" font-family="Times,serif" font-size="8.00">of 476 (8.0%)</text>
</g>
<!-- N16&#45;&gt;N10 -->
<g id="edge23" class="edge"><title>N16&#45;&gt;N10</title>
<path fill="none" stroke="black" d="M436.096,-262.384C424.876,-247.135 407.253,-224.216 390,-206 386.651,-202.464 383.104,-198.902 379.47,-195.383"/>
<polygon fill="black" stroke="black" points="381.592,-192.572 371.924,-188.24 376.78,-197.656 381.592,-192.572"/>
<text text-anchor="middle" x="410" y="-210.3" font-family="Times,serif" font-size="14.00">10</text>
</g>
<!-- N16&#45;&gt;N15 -->
<g id="edge6" class="edge"><title>N16&#45;&gt;N15</title>
<path fill="none" stroke="black" d="M462.874,-262.449C470.22,-254.935 479.526,-246.334 489,-240 536.306,-208.373 574.992,-235.714 606,-188 624.406,-159.678 628.024,-137.61 606,-112 548.467,-45.1003 287.284,-32.7673 152.313,-30.9418"/>
<polygon fill="black" stroke="black" points="152.068,-27.4387 142.027,-30.8197 151.984,-34.4382 152.068,-27.4387"/>
<text text-anchor="middle" x="624.5" y="-146.3" font-family="Times,serif" font-size="14.00">7</text>
</g>
<!-- N19 -->
<g id="node20" class="node"><title>N19</title>
<polygon fill="none" stroke="black" points="597,-176 441,-176 441,-124 597,-124 597,-176"/>
<text text-anchor="middle" x="519" y="-156.16" font-family="Times,serif" font-size="19.80">runtime.epollwait</text>
<text text-anchor="end" x="589" y="-134.16" font-family="Times,serif" font-size="19.80">331 (5.5%)</text>
</g>
<!-- N16&#45;&gt;N19 -->
<g id="edge11" class="edge"><title>N16&#45;&gt;N19</title>
<path fill="none" stroke="black" d="M457.282,-262.266C468.129,-242.712 486.353,-209.856 500.194,-184.904"/>
<polygon fill="black" stroke="black" points="503.283,-186.55 505.073,-176.107 497.162,-183.154 503.283,-186.55"/>
<text text-anchor="middle" x="497.5" y="-210.3" font-family="Times,serif" font-size="14.00">331</text>
</g>
<!-- N16&#45;&gt;N20 -->
<g id="edge29" class="edge"><title>N16&#45;&gt;N20</title>
<path fill="none" stroke="black" d="M461.014,-262.299C468.32,-254.167 478.141,-245.072 489,-240 553.037,-210.093 584.822,-255.601 647,-222 664.09,-212.764 678.224,-196.357 688.369,-181.641"/>
<polygon fill="black" stroke="black" points="691.321,-183.521 693.873,-173.238 685.466,-179.685 691.321,-183.521"/>
<text text-anchor="middle" x="673" y="-210.3" font-family="Times,serif" font-size="14.00">10</text>
</g>
<!-- N27 -->
<g id="node28" class="node"><title>N27</title>
<polygon fill="none" stroke="black" points="215.25,-167 136.75,-167 136.75,-133 215.25,-133 215.25,-167"/>
<text text-anchor="middle" x="176" y="-153.72" font-family="Times,serif" font-size="11.60">runtime.xadd</text>
<text text-anchor="end" x="207.5" y="-140.72" font-family="Times,serif" font-size="11.60">31 (0.5%)</text>
</g>
<!-- N16&#45;&gt;N27 -->
<g id="edge27" class="edge"><title>N16&#45;&gt;N27</title>
<path fill="none" stroke="black" d="M433.049,-262.228C425.928,-254.843 417.01,-246.408 408,-240 393.422,-229.632 387.286,-231.292 372,-222 361.669,-215.72 361.204,-210.544 350,-206 297.58,-184.737 276.118,-209.992 224,-188 215.639,-184.472 207.463,-179.121 200.297,-173.577"/>
<polygon fill="black" stroke="black" points="202.343,-170.728 192.398,-167.076 197.895,-176.133 202.343,-170.728"/>
<text text-anchor="middle" x="379" y="-210.3" font-family="Times,serif" font-size="14.00">31</text>
</g>
<!-- N18&#45;&gt;N15 -->
<g id="edge4" class="edge"><title>N18&#45;&gt;N15</title>
<path fill="none" stroke="black" d="M71,-130.821C71,-114.856 71,-91.0692 71,-70.7201"/>
<polygon fill="black" stroke="black" points="74.5001,-70.4518 71,-60.4518 67.5001,-70.4518 74.5001,-70.4518"/>
<text text-anchor="middle" x="81.5" y="-82.3" font-family="Times,serif" font-size="14.00">403</text>
</g>
<!-- N22&#45;&gt;N15 -->
<g id="edge1" class="edge"><title>N22&#45;&gt;N15</title>
<path fill="none" stroke="black" d="M1197.18,-130.658C1188.31,-123.547 1177.3,-116.134 1166,-112 979.866,-43.901 373.608,-32.9893 152.578,-31.2923"/>
<polygon fill="black" stroke="black" points="152.372,-27.7908 142.347,-31.2182 152.322,-34.7906 152.372,-27.7908"/>
<text text-anchor="middle" x="1109.5" y="-82.3" font-family="Times,serif" font-size="14.00">144</text>
</g>
<!-- N25 -->
<g id="node26" class="node"><title>N25</title>
<polygon fill="none" stroke="black" points="1115,-434 1035,-434 1035,-384 1115,-384 1115,-434"/>
<text text-anchor="middle" x="1075" y="-419.84" font-family="Times,serif" font-size="12.70">copyin</text>
<text text-anchor="end" x="1107" y="-405.84" font-family="Times,serif" font-size="12.70">54 (0.9%)</text>
<text text-anchor="end" x="1107" y="-391.84" font-family="Times,serif" font-size="12.70">of 57 (1.0%)</text>
</g>
<!-- N24&#45;&gt;N25 -->
<g id="edge33" class="edge"><title>N24&#45;&gt;N25</title>
<path fill="none" stroke="black" d="M1075,-499.86C1075,-484.191 1075,-462.497 1075,-444.351"/>
<polygon fill="black" stroke="black" points="1078.5,-444.148 1075,-434.148 1071.5,-444.148 1078.5,-444.148"/>
<text text-anchor="middle" x="1082" y="-468.3" font-family="Times,serif" font-size="14.00">57</text>
</g>
</g>
</g></svg>
